<svg xmlns="http://www.w3.org/2000/svg" viewBox="0 62 1200 658" width="1200" height="658"><defs><clipPath id="becken"><rect x="291" y="609" width="148" height="90" rx="7"/></clipPath><style>@keyframes welle{from{transform:translateX(0)}to{transform:translateX(-16px)}}</style></defs><g clip-path="url(#becken)"><g style="animation:welle 2.2s linear infinite"><path d="M270,673.5 q4,-3 8,0 q4,3 8,0 q4,-3 8,0 q4,3 8,0 q4,-3 8,0 q4,3 8,0 q4,-3 8,0 q4,3 8,0 q4,-3 8,0 q4,3 8,0 q4,-3 8,0 q4,3 8,0 q4,-3 8,0 q4,3 8,0 q4,-3 8,0 q4,3 8,0 q4,-3 8,0 q4,3 8,0 q4,-3 8,0 q4,3 8,0 q4,-3 8,0 q4,3 8,0 q4,-3 8,0 q4,3 8,0 q4,-3 8,0 q4,3 8,0 L478,773.5 L270,773.5 Z" fill="#22d3ee" opacity="0.16"/></g><g style="animation:welle 1.5s linear infinite reverse"><path d="M270,672.0 q4,-2.5 8,0 q4,2.5 8,0 q4,-2.5 8,0 q4,2.5 8,0 q4,-2.5 8,0 q4,2.5 8,0 q4,-2.5 8,0 q4,2.5 8,0 q4,-2.5 8,0 q4,2.5 8,0 q4,-2.5 8,0 q4,2.5 8,0 q4,-2.5 8,0 q4,2.5 8,0 q4,-2.5 8,0 q4,2.5 8,0 q4,-2.5 8,0 q4,2.5 8,0 q4,-2.5 8,0 q4,2.5 8,0 q4,-2.5 8,0 q4,2.5 8,0 q4,-2.5 8,0 q4,2.5 8,0 q4,-2.5 8,0 q4,2.5 8,0 L478,772.0 L270,772.0 Z" fill="#22d3ee" opacity="0.24"/></g></g></svg>